<?xml version="1.0" encoding="iso-8859-1"?>
<!-- Uploaded to: SVG Repo, www.svgrepo.com, Generator: SVG Repo Mixer Tools -->
<svg height="800px" width="800px" version="1.1" id="Layer_1" xmlns="http://www.w3.org/2000/svg" xmlns:xlink="http://www.w3.org/1999/xlink" 
	 viewBox="0 0 512 512" xml:space="preserve">
<path style="fill:#ACABB1;" d="M243.331,0l-64.876,37.456c-38.249,22.083-61.811,62.895-61.811,107.06v279.713L268.669,512
	l126.687-73.142V87.771L243.331,0z"/>
<path style="fill:#898890;" d="M268.669,14.629l-64.876,37.456c-38.249,22.083-61.811,62.895-61.811,107.06v279.712l126.687-73.142
	V14.629z"/>
<polygon style="fill:#C6C5CB;" points="141.981,438.857 243.331,497.371 243.331,292.572 141.981,234.057 "/>
<g>
	<polygon style="fill:#D8D8DA;" points="217.468,44.19 319.34,102.4 370.018,73.142 268.669,14.629 	"/>
	<polygon style="fill:#D8D8DA;" points="141.981,234.057 192.656,204.8 293.743,263.162 243.331,292.572 	"/>
</g>
<polygon style="fill:#ACABB1;" points="167.84,248.987 217.862,219.505 268.669,248.686 217.862,278.019 "/>
<g>
	<polygon style="fill:#C6C5CB;" points="189.487,255.174 178.329,248.732 189.487,242.291 200.644,248.732 	"/>
	<polygon style="fill:#C6C5CB;" points="203.74,246.943 192.583,240.503 203.74,234.061 214.897,240.503 203.741,246.943 	"/>
	<polygon style="fill:#C6C5CB;" points="217.994,238.714 206.837,232.274 217.994,225.832 229.151,232.274 	"/>
	<polygon style="fill:#C6C5CB;" points="203.74,263.403 192.583,256.961 203.74,250.52 203.741,250.52 214.897,256.961 	"/>
	<polygon style="fill:#C6C5CB;" points="217.994,255.174 206.837,248.732 217.994,242.291 229.151,248.732 	"/>
	<polygon style="fill:#C6C5CB;" points="232.248,246.943 221.09,240.503 232.248,234.061 232.248,234.061 243.404,240.503 	"/>
	<polygon style="fill:#C6C5CB;" points="217.994,271.632 206.837,265.19 217.994,258.749 229.151,265.19 	"/>
	<polygon style="fill:#C6C5CB;" points="232.248,263.403 221.09,256.961 232.248,250.52 232.248,250.52 243.404,256.961 	"/>
	<polygon style="fill:#C6C5CB;" points="246.501,255.174 235.344,248.732 246.501,242.291 257.658,248.732 	"/>
	<polygon style="fill:#C6C5CB;" points="217.468,44.19 192.656,204.8 293.743,263.162 319.34,102.4 	"/>
</g>
<polygon style="fill:#2487FF;" points="230.666,81.692 214.353,187.288 280.814,225.659 297.642,119.964 "/>
<path style="fill:#ACABB1;" d="M370.018,73.142l-64.876,37.456c-38.249,22.083-61.811,62.895-61.811,107.06V497.37l25.338,14.629
	l126.687-73.142V87.771L370.018,73.142z"/>
<path style="fill:#898890;" d="M395.355,87.771l-64.876,37.456c-38.249,22.083-61.811,62.895-61.811,107.06v279.712l126.687-73.142
	V87.771z"/>
<g>
	<polygon style="fill:#ACABB1;" points="233.223,210.514 210.155,197.057 210.155,201.722 233.223,215.179 	"/>
	<polygon style="fill:#ACABB1;" points="167.319,277.943 167.319,307.2 217.994,336.457 217.994,307.2 	"/>
</g>
<polygon style="fill:#898890;" points="209.792,314.766 175.445,294.936 175.445,299.59 209.792,319.42 "/>
<g>
	<path style="fill:#77767E;" d="M300.37,233.257l7.763-4.482l1.79,5.542l2.144-1.238l5.99-3.458l-10.205-27.693l-0.481,0.277
		l-6.829,3.942l-10.061,39.393l8.18-4.723L300.37,233.257z M304.228,214.473l2.617,8.897l-5.306,3.063L304.228,214.473z"/>
	<polygon style="fill:#77767E;" points="332.084,195.978 340.469,191.137 340.446,183.111 315.625,197.442 315.648,205.467 
		324.07,200.604 324.143,226.108 327.717,224.044 332.156,221.481 	"/>
	<polygon style="fill:#77767E;" points="358.446,188.518 352.113,176.375 343.358,181.43 343.453,214.959 351.467,210.333 
		351.416,192.673 356.349,202.261 360.615,199.798 365.477,184.554 365.527,202.214 373.541,197.588 373.446,164.059 
		364.728,169.092 	"/>
</g>
</svg>